# xmcd
#
# Track frame offsets:
# 183
# 13670
# 28045
# 49208
# 63820
# 76908
# 96933
# 111595
# 125433
# 141695
# 155845
# 173983
# 188245
# 205983
# 218620
# 237108
#
# Disc length: 3335 seconds
#
#
# Revision: 2
# Processed by: cddbd v1.5.2PL0 Copyright (c) Steve Scherf et al.
# Submitted via: FreeRIP 2.945 
#
DISCID=e90d0510
DTITLE=John Denver - The John Denver Collection
DYEAR=1985
DGENRE=Country
TTITLE0=Annie's Song
TTITLE1=Take Me Home Country Roads
TTITLE2=Rocky Mountain High
TTITLE3=Starwood In Aspen
TTITLE4=Follow Me
TTITLE5=I'd Rather Be A Cowboy (Lady's Chains)
TTITLE6=Rhymes And Reasons
TTITLE7=Perhaps Love (With Placido Domingo)
TTITLE8=Calypso
TTITLE9=Country Love
TTITLE10=Leaving On A Jet Plane
TTITLE11=Thank God I'm A Country Boy
TTITLE12=Dancing With The Mountains
TTITLE13=Baby You Look Good To Me Tonight
TTITLE14=Wild Montana Skies
TTITLE15=Love Again (With Sylvie Vartan)
EXTD=
EXTT0=
EXTT1=
EXTT2=
EXTT3=
EXTT4=
EXTT5=
EXTT6=
EXTT7=
EXTT8=
EXTT9=
EXTT10=
EXTT11=
EXTT12=
EXTT13=
EXTT14=
EXTT15=
PLAYORDER=
